HIERARCHY
ROOT Hips
{
  OFFSET 62.1483 96.9969 23.092
  CHANNELS 6 Xposition Yposition Zposition Zrotation Xrotation Yrotation
  JOINT spine
  {
    OFFSET 0 7.96568 0.458067
    CHANNELS 3 Zrotation Xrotation Yrotation
    JOINT spine1
    {
      OFFSET 0 10.2431 0
      CHANNELS 3 Zrotation Xrotation Yrotation
      JOINT spine2
      {
        OFFSET 0 9.81475 0
        CHANNELS 3 Zrotation Xrotation Yrotation
        JOINT Neck
        {
          OFFSET 0 25.1986 1.20138
          CHANNELS 3 Zrotation Xrotation Yrotation
          JOINT Head
          {
            OFFSET 0 7.61315 0
            CHANNELS 3 Zrotation Xrotation Yrotation
            End Site
            {
              OFFSET 0 18.4281 -6.07733
            }
          }
        }
        JOINT RightShoulder
        {
          OFFSET -4.1327 10.5992 -0.575451
          CHANNELS 3 Zrotation Xrotation Yrotation
          JOINT RightArm
          {
            OFFSET 0 13.9018 0
            CHANNELS 3 Zrotation Xrotation Yrotation
            JOINT RightArmRoll
            {
              OFFSET 0 7.01789 0
              CHANNELS 3 Zrotation Xrotation Yrotation
              JOINT RightForeArm
              {
                OFFSET 0 20.4406 0
                CHANNELS 3 Zrotation Xrotation Yrotation
                JOINT RightForeArmRoll
                {
                  OFFSET 0 7.87515 0
                  CHANNELS 3 Zrotation Xrotation Yrotation
                  JOINT RightHand
                  {
                    OFFSET 0 15.8037 0
                    CHANNELS 3 Zrotation Xrotation Yrotation
                    End Site
                    {
                      OFFSET 0 0 0
                    }
                  }
                }
              }
            }
          }
        }
        JOINT LeftShoulder
        {
          OFFSET 4.1327 10.5992 -0.575451
          CHANNELS 3 Zrotation Xrotation Yrotation
          JOINT LeftArm
          {
            OFFSET 0 13.9018 0
            CHANNELS 3 Zrotation Xrotation Yrotation
            JOINT LeftArmRoll
            {
              OFFSET 0 7.01788 0
              CHANNELS 3 Zrotation Xrotation Yrotation
              JOINT LeftForeArm
              {
                OFFSET 0 20.4406 0
                CHANNELS 3 Zrotation Xrotation Yrotation
                JOINT LeftForeArmRoll
                {
                  OFFSET 0 7.87515 0
                  CHANNELS 3 Zrotation Xrotation Yrotation
                  JOINT LeftHand
                  {
                    OFFSET 0 15.8037 0
                    CHANNELS 3 Zrotation Xrotation Yrotation
                    End Site
                    {
                      OFFSET 0 0 0
                    }
                  }
                }
              }
            }
          }
        }
      }
    }
  }
  JOINT RightUpLeg
  {
    OFFSET -7.06048 -1.2947 -1.0861
    CHANNELS 3 Zrotation Xrotation Yrotation
    JOINT RightUpLegRoll
    {
      OFFSET 0 18.5308 0
      CHANNELS 3 Zrotation Xrotation Yrotation
      JOINT RightLeg
      {
        OFFSET 0 -22.9476 0
        CHANNELS 3 Zrotation Xrotation Yrotation
        JOINT RightLegRoll
        {
          OFFSET 0 23.0226 0
          CHANNELS 3 Zrotation Xrotation Yrotation
          JOINT RightFoot
          {
            OFFSET 0 19.1625 0
            CHANNELS 3 Zrotation Xrotation Yrotation
            JOINT RightToeBase
            {
              OFFSET 0 16.0188 0
              CHANNELS 3 Zrotation Xrotation Yrotation
              End Site
              {
                OFFSET 0.00678979 7.75782 -0.894206
              }
            }
          }
        }
      }
    }
  }
  JOINT LeftUpLeg
  {
    OFFSET 7.06048 -1.2947 -1.0861
    CHANNELS 3 Zrotation Xrotation Yrotation
    JOINT LeftUpLegRoll
    {
      OFFSET 0 18.5309 0
      CHANNELS 3 Zrotation Xrotation Yrotation
      JOINT LeftLeg
      {
        OFFSET 0 22.9475 0
        CHANNELS 3 Zrotation Xrotation Yrotation
        JOINT LeftLegRoll
        {
          OFFSET 0 23.2355 0
          CHANNELS 3 Zrotation Xrotation Yrotation
          JOINT LeftFoot
          {
            OFFSET 0 18.9496 0
            CHANNELS 3 Zrotation Xrotation Yrotation
            JOINT LeftToeBase
            {
              OFFSET 0 16.0188 0
              CHANNELS 3 Zrotation Xrotation Yrotation
              End Site
              {
                OFFSET -0.0304289 7.75782 -0.894207
              }
            }
          }
        }
      }
    }
  }
}
MOTION
Frames: 12
Frame Time: 0.00208333
62.2787 97.0921 21.9024 1.22019 -7.70492 1.17815 -0.291769 -0.0583612 -0.0247252 -0.602201 3.88503 -0.00919858 -0.602991 5.53006 0.00091998 -6.58333 6.20017 1.1804 10.6269 22.7732 -1.29155 64.0522 -2.24933 -1.89592 130.429 42.6553 -21.1554 1.99454e-006 5.27344e-006 3.92277e-006 18.6584 80.8813 -20.2876 -8.23088e-007 5.68698e-006 -3.00345 8.02925 -4.95142 0.697663 -62.6697 -4.73263 3.18861 -123.952 43.527 28.4898 2.16968e-006 3.28232e-006 -1.20269e-006 -18.7112 80.817 20.5366 7.29884e-006 -4.19779e-006 3.00235 -8.02887 -4.95143 -0.697672 174.172 -7.11703 5.19222 180 7.01491e-015 178.702 178.544 7.11937 179.62 1.58977e-007 3.62128e-006 0.12924 -19.2757 68.5406 19.9848 8.13649 25.2327 -3.48774 -174.895 -4.32424 -1.68777 4.5067e-006 -1.99009e-005 -1.25083 -1.8192 -6.46583 0.0443496 -3.50878e-006 -6.58044e-007 -0.0976886 19.081 68.3124 -19.7886 -8.1365 25.2327 3.48774 
62.2835 97.0878 21.9056 1.23009 -7.71404 1.18454 -0.293761 -0.0570878 -0.0261172 -0.606887 3.88801 -0.0120049 -0.607648 5.53303 -0.00181114 -6.54889 6.24944 1.1845 10.5707 22.851 -1.28467 64.0453 -2.26269 -1.9027 130.471 42.5536 -22.0228 1.99454e-006 5.27344e-006 3.92277e-006 19.5339 80.9745 -21.1676 -8.23088e-007 5.68698e-006 -3.00343 8.02925 -4.95142 0.697663 -62.6781 -4.69116 3.16536 -124.122 43.5707 29.0612 2.16968e-006 3.28232e-006 -1.20269e-006 -19.2395 80.9189 21.0856 7.29884e-006 -4.19779e-006 3.00233 -8.02887 -4.95143 -0.697672 174.159 -7.12046 5.20102 180 7.01491e-015 178.702 178.542 7.13347 179.62 1.58977e-007 3.62128e-006 0.129182 -19.2752 68.54 19.9843 8.13649 25.2327 -3.48774 -174.908 -4.34044 -1.68 4.5067e-006 -1.99009e-005 -1.25102 -1.81767 -6.45445 0.0442706 -3.50878e-006 -6.58044e-007 -0.0974194 19.0773 68.3081 -19.7847 -8.1365 25.2327 3.48774 
62.313 97.0881 21.8964 1.23863 -7.72294 1.19017 -0.295742 -0.0559119 -0.0273036 -0.61119 3.8907 -0.0145857 -0.611926 5.53572 -0.0043239 -6.51352 6.30249 1.18854 10.5137 22.9231 -1.27707 64.0392 -2.27562 -1.9093 130.499 42.4635 -22.904 1.99454e-006 5.27344e-006 3.92277e-006 20.4113 81.0582 -22.0479 -8.23087e-007 5.68698e-006 -3.00341 8.02925 -4.95142 0.697663 -62.6868 -4.64914 3.14184 -124.277 43.6149 29.6506 2.16968e-006 3.28232e-006 -1.20269e-006 -19.8073 81.0269 21.6759 7.29884e-006 -4.19779e-006 3.00231 -8.02887 -4.95143 -0.697672 174.148 -7.1241 5.20799 180 7.01491e-015 178.702 178.542 7.14676 179.619 1.58977e-007 3.62128e-006 0.129154 -19.2747 68.5394 19.9838 8.13649 25.2327 -3.48774 -174.919 -4.35641 -1.67376 4.5067e-006 -1.99009e-005 -1.2512 -1.81662 -6.4434 0.0442455 -3.50878e-006 -6.58044e-007 -0.0971128 19.0736 68.3037 -19.7807 -8.1365 25.2327 3.48774 
62.31 97.0923 21.9016 1.24558 -7.73164 1.19501 -0.297704 -0.0548467 -0.0282573 -0.615045 3.89307 -0.01691 -0.615756 5.5381 -0.00658876 -6.47712 6.35975 1.1925 10.4559 22.9887 -1.2687 64.0338 -2.28801 -1.91568 130.515 42.3866 -23.8002 1.99454e-006 5.27344e-006 3.92277e-006 21.2866 81.1318 -22.9241 -8.23088e-007 5.68698e-006 -3.00339 8.02925 -4.95142 0.697663 -62.6959 -4.60658 3.11804 -124.415 43.6592 30.2608 2.16968e-006 3.28232e-006 -1.20269e-006 -20.423 81.1424 22.3161 7.29884e-006 -4.19779e-006 3.00229 -8.02887 -4.95143 -0.697672 174.14 -7.12805 5.21283 180 7.01491e-015 178.701 178.543 7.15904 179.619 1.58977e-007 3.62128e-006 0.129158 -19.274 68.5386 19.9832 8.13649 25.2327 -3.48774 -174.927 -4.37211 -1.66933 4.5067e-006 -1.99009e-005 -1.25136 -1.81613 -6.43275 0.0442793 -3.50878e-006 -6.58044e-007 -0.0967647 19.0698 68.2992 -19.7766 -8.1365 25.2327 3.48774 
62.3155 97.0906 21.9033 1.25095 -7.74002 1.19887 -0.299666 -0.0539186 -0.0289639 -0.61841 3.89509 -0.0190514 -0.619099 5.54012 -0.00867955 -6.43943 6.42242 1.19683 10.3961 23.0475 -1.25898 64.0292 -2.30001 -1.9219 130.514 42.3226 -24.7425 1.99454e-006 5.27344e-006 3.92277e-006 22.1691 81.197 -23.8074 -8.23088e-007 5.68698e-006 -3.00337 8.02925 -4.95142 0.697663 -62.7069 -4.5637 3.09423 -124.533 43.7042 30.8995 2.16968e-006 3.28232e-006 -1.20269e-006 -21.096 81.266 23.0166 7.29884e-006 -4.19779e-006 3.00227 -8.02887 -4.95143 -0.697672 174.135 -7.132 5.21564 180 7.01491e-015 178.701 178.545 7.17054 179.618 1.58977e-007 3.62128e-006 0.129197 -19.2733 68.5378 19.9825 8.13649 25.2327 -3.48774 -174.934 -4.38778 -1.66665 4.5067e-006 -1.99009e-005 -1.25149 -1.81619 -6.42191 0.0444135 -3.50878e-006 -6.58044e-007 -0.0963598 19.0657 68.2944 -19.7723 -8.1365 25.2327 3.48774 
62.3227 97.0946 21.9056 1.25499 -7.74804 1.20166 -0.301649 -0.0531319 -0.0294444 -0.621332 3.89679 -0.0210996 -0.621999 5.54181 -0.0106846 -6.40036 6.49084 1.20186 10.3337 23.1004 -1.24755 64.025 -2.31185 -1.92809 130.493 42.2678 -25.7525 1.99454e-006 5.27344e-006 3.92277e-006 23.0676 81.256 -24.7079 -8.23087e-007 5.68698e-006 -3.00335 8.02925 -4.95142 0.697663 -62.7209 -4.52071 3.07061 -124.631 43.7503 31.5693 2.16968e-006 3.28232e-006 -1.20269e-006 -21.828 81.3964 23.7796 7.29884e-006 -4.19779e-006 3.00225 -8.02887 -4.95143 -0.697672 174.132 -7.13561 5.21679 180 7.01491e-015 178.701 178.549 7.18163 179.618 1.58977e-007 3.62128e-006 0.129269 -19.2725 68.5368 19.9817 8.13649 25.2327 -3.48774 -174.938 -4.40365 -1.66536 4.5067e-006 -1.99009e-005 -1.2516 -1.81668 -6.41032 0.0446723 -3.50878e-006 -6.58044e-007 -0.095892 19.0611 68.289 -19.7674 -8.1365 25.2327 3.48774 
62.291 97.0956 21.9161 1.25787 -7.75574 1.20346 -0.303651 -0.0524662 -0.0297245 -0.623877 3.89821 -0.0230476 -0.624523 5.54323 -0.0125959 -6.3601 6.56422 1.20746 10.2691 23.1481 -1.23467 64.0214 -2.32355 -1.93424 130.456 42.2186 -26.8179 1.99454e-006 5.27344e-006 3.92277e-006 23.9769 81.3087 -25.6201 -8.23087e-007 5.68698e-006 -3.00332 8.02925 -4.95142 0.697663 -62.7375 -4.47753 3.04708 -124.711 43.7963 32.2651 2.16968e-006 3.28232e-006 -1.20269e-006 -22.617 81.5317 24.6026 7.29884e-006 -4.19779e-006 3.00224 -8.02887 -4.95143 -0.697672 174.131 -7.13893 5.21647 180 7.01491e-015 178.701 178.553 7.19239 179.617 1.58977e-007 3.62128e-006 0.129369 -19.2717 68.5359 19.9809 8.13649 25.2327 -3.48774 -174.941 -4.41965 -1.66529 4.5067e-006 -1.99009e-005 -1.25168 -1.81755 -6.39817 0.0450355 -3.50878e-006 -6.58044e-007 -0.0953706 19.0561 68.2831 -19.7621 -8.1365 25.2327 3.48774 
62.3027 97.0982 21.9173 1.25974 -7.76316 1.20435 -0.30567 -0.0519011 -0.02983 -0.626111 3.8994 -0.0248887 -0.626737 5.54442 -0.0144057 -6.31882 6.64176 1.21346 10.2026 23.1911 -1.22061 64.0183 -2.33511 -1.94038 130.408 42.1715 -27.9258 1.99454e-006 5.27344e-006 3.92277e-006 24.8914 81.3547 -26.5381 -8.23088e-007 5.68698e-006 -3.0033 8.02925 -4.95142 0.697663 -62.7559 -4.43405 3.02355 -124.776 43.8412 32.9821 2.16968e-006 3.28232e-006 -1.20269e-006 -23.4605 81.6703 25.4824 7.29884e-006 -4.19779e-006 3.00222 -8.02887 -4.95143 -0.697672 174.132 -7.14198 5.21485 180 7.01491e-015 178.701 178.558 7.20283 179.616 1.58977e-007 3.62128e-006 0.129496 -19.2709 68.5349 19.9801 8.13649 25.2327 -3.48774 -174.943 -4.43574 -1.66626 4.5067e-006 -1.99009e-005 -1.25176 -1.81873 -6.38564 0.0454827 -3.50878e-006 -6.58044e-007 -0.0948048 19.0509 68.277 -19.7566 -8.1365 25.2327 3.48774 
62.2888 97.0764 21.9192 1.26078 -7.77035 1.20444 -0.307705 -0.0514163 -0.0297865 -0.628101 3.90039 -0.0266161 -0.628708 5.54541 -0.0161062 -6.27669 6.72265 1.21969 10.1346 23.2301 -1.20564 64.016 -2.34654 -1.94651 130.35 42.1239 -29.0637 1.99454e-006 5.27344e-006 3.92277e-006 25.8055 81.394 -27.4558 -8.23087e-007 5.68698e-006 -3.00328 8.02925 -4.95142 0.697663 -62.7756 -4.39021 2.99992 -124.828 43.8841 33.7151 2.16968e-006 3.28232e-006 -1.20269e-006 -24.3549 81.8104 26.415 7.29884e-006 -4.19779e-006 3.0022 -8.02887 -4.95143 -0.697672 174.134 -7.14482 5.21209 180 7.01491e-015 178.701 178.564 7.21302 179.615 1.58977e-007 3.62128e-006 0.129645 -19.2701 68.534 19.9792 8.13649 25.2327 -3.48774 -174.943 -4.45183 -1.6681 4.5067e-006 -1.99009e-005 -1.25181 -1.82018 -6.37291 0.0459935 -3.50878e-006 -6.58044e-007 -0.0942037 19.0455 68.2707 -19.7508 -8.1365 25.2327 3.48774 
62.2903 97.083 21.9278 1.26114 -7.77734 1.20381 -0.309753 -0.0509914 -0.0296199 -0.629912 3.90125 -0.0282229 -0.6305 5.54626 -0.0176893 -6.23389 6.8061 1.22602 10.0656 23.2657 -1.19004 64.0143 -2.35786 -1.95264 130.287 42.0735 -30.2186 1.99454e-006 5.27344e-006 3.92277e-006 26.713 81.4265 -28.3667 -8.23087e-007 5.68698e-006 -3.00326 8.02925 -4.95142 0.697663 -62.796 -4.34592 2.97608 -124.869 43.9243 34.4591 2.16968e-006 3.28232e-006 -1.20269e-006 -25.296 81.9506 27.3957 7.29884e-006 -4.19779e-006 3.00218 -8.02887 -4.95143 -0.697672 174.137 -7.14748 5.20838 180 7.0149e-015 178.701 178.57 7.22301 179.614 1.58977e-007 3.62128e-006 0.129813 -19.2693 68.5331 19.9784 8.13649 25.2327 -3.48774 -174.943 -4.46788 -1.67063 4.5067e-006 -1.99009e-005 -1.25185 -1.82184 -6.36016 0.0465475 -3.50878e-006 -6.58044e-007 -0.0935764 19.04 68.2642 -19.745 -8.1365 25.2327 3.48774 
62.2954 97.0743 21.9312 1.26098 -7.78418 1.20254 -0.311813 -0.0506061 -0.0293558 -0.631609 3.902 -0.0297023 -0.632182 5.54702 -0.0191474 -6.19059 6.89129 1.23227 9.99598 23.2987 -1.17405 64.0134 -2.36908 -1.95878 130.22 42.0187 -31.3777 1.99454e-006 5.27344e-006 3.92277e-006 27.6081 81.4521 -29.2644 -8.23087e-007 5.68698e-006 -3.00324 8.02925 -4.95142 0.697663 -62.8165 -4.30108 2.95195 -124.901 43.9612 35.2089 2.16968e-006 3.28232e-006 -1.20269e-006 -26.2786 82.0891 28.4185 7.29884e-006 -4.19779e-006 3.00216 -8.02887 -4.95143 -0.697672 174.141 -7.15001 5.20388 180 7.0149e-015 178.7 178.577 7.23284 179.613 1.58977e-007 3.62128e-006 0.129998 -19.2685 68.5321 19.9776 8.13649 25.2327 -3.48774 -174.942 -4.48381 -1.67366 4.5067e-006 -1.99009e-005 -1.25189 -1.82366 -6.34758 0.0471244 -3.50878e-006 -6.58044e-007 -0.0929323 19.0345 68.2578 -19.7392 -8.1365 25.2327 3.48774 
62.2907 97.0734 21.9348 1.26047 -7.79092 1.20074 -0.313882 -0.0502401 -0.02902 -0.633259 3.9027 -0.0310476 -0.633817 5.54771 -0.0204724 -6.14696 6.97743 1.23829 9.92609 23.3295 -1.15797 64.0134 -2.38021 -1.96495 130.152 41.9585 -32.5281 1.99454e-006 5.27344e-006 3.92277e-006 28.4845 81.4708 -30.1425 -8.23087e-007 5.68698e-006 -3.00322 8.02925 -4.95142 0.697663 -62.8366 -4.25562 2.92742 -124.927 43.9946 35.9595 2.16968e-006 3.28232e-006 -1.20269e-006 -27.2961 82.2244 29.4765 7.29884e-006 -4.19779e-006 3.00215 -8.02887 -4.95143 -0.697672 174.146 -7.15244 5.19878 180 7.0149e-015 178.7 178.585 7.24256 179.612 1.58977e-007 3.62128e-006 0.130195 -19.2678 68.5313 19.9769 8.13649 25.2327 -3.48774 -174.94 -4.49957 -1.67703 4.5067e-006 -1.99009e-005 -1.25191 -1.82559 -6.33534 0.0477038 -3.50878e-006 -6.58044e-007 -0.0922805 19.0292 68.2515 -19.7335 -8.1365 25.2327 3.48774 
